# xmcd
#
# Track frame offsets: 
#        150
#        34260
#        55262
#        65366
#        109678
#        135798
#
# Disc length: 2379 seconds
#
# Revision: 0
# Processed by: cddbd v1.5.2PL0 Copyright (c) Steve Scherf et al.
# Submitted via: ExactAudioCopy v0.99pb3
#
DISCID=48094906
DTITLE=Anders Osborne - Tipitina's Live 2006 - Disc 3
DYEAR=2006
DGENRE=New Orleans
TTITLE0=Stoned, Drunk and Naked
TTITLE1=Drums/Sousa Jam
TTITLE2=Blown Amp Groove
TTITLE3=Down By The River
TTITLE4=Junko Partner
TTITLE5=Louisiana Rain
EXTD=
EXTT0=
EXTT1=
EXTT2=
EXTT3=
EXTT4=
EXTT5=
PLAYORDER=
